<?xml version="1.0" encoding="iso-8859-1"?>
<!-- Generator: Adobe Illustrator 19.0.0, SVG Export Plug-In . SVG Version: 6.00 Build 0)  -->
<svg version="1.1" id="Capa_1" xmlns="http://www.w3.org/2000/svg" xmlns:xlink="http://www.w3.org/1999/xlink" x="0px" y="0px"
	 viewBox="0 0 480 480" style="enable-background:new 0 0 480 480;" xml:space="preserve">
<polygon style="fill:#65CECC;" points="472,264 384,264 368,312 352,264 256,264 240,312 224,264 128,264 112,312 96,264 8,264 8,8 
	472,8 "/>
<circle style="fill:#E9CD4B;" cx="384" cy="136" r="56"/>
<g>
	<circle style="fill:#00BA54;" cx="48" cy="352" r="32"/>
	<path style="fill:#00BA54;" d="M39.2,384H56c17.6,0,31.2,14.4,31.2,31.2V472l0,0H8l0,0v-56.8C8,398.4,22.4,384,39.2,384z"/>
</g>
<g>
	<circle style="fill:#E9CD4B;" cx="176" cy="352" r="32"/>
	<path style="fill:#E9CD4B;" d="M167.2,384H184c17.6,0,31.2,14.4,31.2,31.2l0,0V472l0,0H136l0,0v-56.8
		C136,398.4,150.4,384,167.2,384z"/>
</g>
<g>
	<circle style="fill:#816892;" cx="304" cy="352" r="32"/>
	<path style="fill:#816892;" d="M295.2,384H312c17.6,0,31.2,14.4,31.2,31.2l0,0V472l0,0H264l0,0v-56.8
		C264,398.4,278.4,384,295.2,384z"/>
</g>
<g>
	<circle style="fill:#DE2F55;" cx="432" cy="352" r="32"/>
	<path style="fill:#DE2F55;" d="M423.2,384H440c17.6,0,31.2,14.4,31.2,31.2l0,0V472l0,0H392l0,0v-56.8
		C392,398.4,406.4,384,423.2,384z"/>
	<polygon style="fill:#DE2F55;" points="272,105.6 272,64 248,64 248,86.4 224,64 152,128 176,128 176,208 272,208 272,128 296,128 
			"/>
</g>
<path style="fill:#E9CD4B;" d="M120.8,158.4c-7.2-18.4-28-27.2-46.4-20c-8.8,4-16,10.4-20,20L48,176h80L120.8,158.4z"/>
<polygon style="fill:#816892;" points="40,176 136,176 120,207.2 56,207.2 "/>
<path d="M75.2,380.8c16-15.2,16.8-40.8,1.6-56.8S36,307.2,20,322.4c-16,15.2-16.8,40.8-1.6,56.8c0.8,0.8,0.8,0.8,1.6,1.6
	c-12,7.2-20,20-20,34.4V472c0,4.8,3.2,8,8,8h80c4.8,0,8-3.2,8-8v-56.8C96,400.8,88,388,75.2,380.8z M48,328c13.6,0,24,10.4,24,24
	s-10.4,24-24,24s-24-10.4-24-24S34.4,328,48,328z M80,464H16v-48.8c0-12.8,10.4-23.2,23.2-23.2H56c12.8,0,23.2,10.4,23.2,23.2V464
	H80z"/>
<path d="M203.2,380.8c16-15.2,16.8-40.8,1.6-56.8s-40.8-16.8-56.8-1.6c-16,15.2-16.8,40.8-1.6,56.8c0.8,0.8,0.8,0.8,1.6,1.6
	c-12,7.2-20,20-20,34.4V472c0,4.8,3.2,8,8,8h80c4.8,0,8-3.2,8-8v-56.8C224,400.8,216,388,203.2,380.8z M176,328
	c13.6,0,24,10.4,24,24s-10.4,24-24,24s-24-10.4-24-24S162.4,328,176,328z M208,464h-64v-48.8c0-12.8,10.4-23.2,23.2-23.2H184
	c12.8,0,23.2,10.4,23.2,23.2V464H208z"/>
<path d="M331.2,380.8c16-15.2,16.8-40.8,1.6-56.8c-15.2-16-40.8-16.8-56.8-1.6c-16,15.2-16.8,40.8-1.6,56.8c0.8,0.8,0.8,0.8,1.6,1.6
	c-12,7.2-20,20-20,34.4V472c0,4.8,3.2,8,8,8h80c4.8,0,8-3.2,8-8v-56.8C352,400.8,344,388,331.2,380.8z M304,328
	c13.6,0,24,10.4,24,24s-10.4,24-24,24s-24-10.4-24-24S290.4,328,304,328z M336,464h-64v-48.8c0-12.8,10.4-23.2,23.2-23.2H312
	c12.8,0,23.2,10.4,23.2,23.2V464H336z"/>
<path d="M459.2,380.8c16-15.2,16.8-40.8,1.6-56.8c-15.2-16-40.8-16.8-56.8-1.6c-16,15.2-16.8,40.8-1.6,56.8c0.8,0.8,0.8,0.8,1.6,1.6
	c-12,7.2-20,20-20,34.4V472c0,4.8,3.2,8,8,8h80c4.8,0,8-3.2,8-8v-56.8C480,400.8,472,388,459.2,380.8z M432,328
	c13.6,0,24,10.4,24,24s-10.4,24-24,24s-24-10.4-24-24S418.4,328,432,328z M464,464h-64v-48.8c0-12.8,10.4-23.2,23.2-23.2H440
	c12.8,0,23.2,10.4,23.2,23.2V464H464z"/>
<path d="M368,320c-3.2,0-6.4-2.4-7.2-5.6L346.4,272h-84.8l-14.4,42.4c-1.6,4-5.6,6.4-10.4,4.8c-2.4-0.8-4-2.4-4.8-4.8L218.4,272
	h-84.8l-14.4,42.4c-1.6,4-5.6,6.4-10.4,4.8c-2.4-0.8-4-2.4-4.8-4.8L90.4,272H8c-4.8,0-8-3.2-8-8V8c0-4.8,3.2-8,8-8h464
	c4.8,0,8,3.2,8,8v256c0,4.8-3.2,8-8,8h-82.4l-14.4,42.4C374.4,317.6,371.2,320,368,320z M256,256h96c3.2,0,6.4,2.4,7.2,5.6l8.8,25.6
	l8.8-25.6c0.8-3.2,4-5.6,7.2-5.6h80V16H16v240h80c3.2,0,6.4,2.4,7.2,5.6l8.8,25.6l8.8-25.6c0.8-3.2,4-5.6,7.2-5.6h96
	c3.2,0,6.4,2.4,7.2,5.6l8.8,25.6l8.8-25.6C249.6,258.4,252.8,256,256,256z"/>
<path d="M53.6,117.6l-11.2-11.2L52.8,96L48,91.2c-6.4-6.4-6.4-16,0-22.4l0,0l10.4-10.4l11.2,11.2L59.2,80l4.8,4.8
	c6.4,6.4,6.4,16,0,22.4L53.6,117.6z"/>
<path d="M85.6,117.6l-11.2-11.2L84.8,96L80,91.2c-6.4-6.4-6.4-16,0-22.4l0,0l10.4-10.4l11.2,11.2L91.2,80l4.8,4.8
	c6.4,6.4,6.4,16,0,22.4L85.6,117.6z"/>
<path d="M117.6,117.6l-11.2-11.2L116.8,96l-4.8-4.8c-6.4-6.4-6.4-16,0-22.4l0,0l10.4-10.4l11.2,11.2L123.2,80l4.8,4.8
	c6.4,6.4,6.4,16,0,22.4L117.6,117.6z"/>
<path d="M272,216h-96c-4.8,0-8-3.2-8-8v-72h-16c-4.8,0-8-3.2-8-8c0-2.4,0.8-4.8,2.4-5.6l72-64c3.2-2.4,8-2.4,10.4,0l10.4,9.6v-4
	c0-4.8,3.2-8,8-8h24c4.8,0,8,3.2,8,8v38.4l21.6,20c3.2,3.2,3.2,8,0,11.2c-0.8,1.6-2.4,2.4-4.8,2.4h-16v72
	C280,212.8,276.8,216,272,216z M184,200h80v-72c0-4.8,3.2-8,8-8h4l-8.8-8.8c-1.6-1.6-2.4-4-2.4-5.6V72h-8v14.4c0,4.8-3.2,8-8,8
	c-2.4,0-4-0.8-5.6-2.4L224,75.2L172.8,120h3.2c4.8,0,8,3.2,8,8V200z"/>
<path d="M384,72c-35.2,0-64,28.8-64,64s28.8,64,64,64s64-28.8,64-64S419.2,72,384,72z M336,136c0-23.2,16.8-43.2,40-47.2v8.8
	c-9.6,3.2-16,12-16,22.4c0,16.8,13.6,20.8,21.6,24c8.8,3.2,10.4,4,10.4,8c0,4.8-3.2,8-8,8s-8-3.2-8-8h-16c0,10.4,6.4,19.2,16,22.4
	v8.8C352.8,179.2,336,159.2,336,136z M392,183.2v-8.8c9.6-3.2,16-12,16-22.4c0-16.8-13.6-20.8-21.6-24c-8.8-3.2-10.4-4-10.4-8
	c0-4.8,3.2-8,8-8s8,3.2,8,8h16c0-10.4-6.4-19.2-16-22.4v-8.8c26.4,4,44,28.8,39.2,55.2C428,164,412,180,392,183.2z"/>
<path d="M143.2,172c-1.6-2.4-4.8-4-7.2-4h-2.4l-5.6-12.8l0,0c-8.8-22.4-34.4-32.8-56.8-24c-11.2,4.8-20,12.8-24,24L42.4,168H40
	c-4.8,0-8,3.2-8,8c0,1.6,0,2.4,0.8,3.2l16,32c1.6,3.2,4,4.8,7.2,4.8h64c3.2,0,5.6-1.6,7.2-4.8l16-32C144,176.8,144,174.4,143.2,172z
	 M62.4,161.6c5.6-14.4,21.6-20.8,36-15.2c7.2,2.4,12.8,8,15.2,15.2l2.4,6.4H60L62.4,161.6z M115.2,200H60.8l-8-16h70.4L115.2,200z"
	/>
<g>
</g>
<g>
</g>
<g>
</g>
<g>
</g>
<g>
</g>
<g>
</g>
<g>
</g>
<g>
</g>
<g>
</g>
<g>
</g>
<g>
</g>
<g>
</g>
<g>
</g>
<g>
</g>
<g>
</g>
</svg>
