<?xml version="1.0"?>
<svg xmlns="http://www.w3.org/2000/svg" viewBox="0 0 64 64" width="512" height="512"><path d="m41 25.35086h4v17.64914h-4z" fill="#bebec6"/><path d="m47.5 47a2.5 2.5 0 0 0 0-5h-15.95453l3.40424-2.49646a2.51533 2.51533 0 0 0 -2.94947-4.0752l-9.20024 6.57166h-3.8v20h26.5a2.5 2.5 0 0 0 0-5h1a2.5 2.5 0 0 0 0-5h1a2.5 2.5 0 0 0 0-5z" fill="#f9cc4e"/><path d="m45.5 61h-26.5v1h26.5a2.5004 2.5004 0 0 0 2.44958-3 2.50053 2.50053 0 0 1 -2.44958 2z" fill="#f4b821"/><path d="m57.33307 17.115-2.9086 1.6013a1.26526 1.26526 0 0 0 -.54808 1.64769l1.38927 2.96528a1.286 1.286 0 0 1 -1.34247 1.804l-3.31626-.37623a1.30691 1.30691 0 0 0 -1.43568 1.01937l-.65666 3.19447a1.31971 1.31971 0 0 1 -2.172.68954l-2.4551-2.20842a1.33306 1.33306 0 0 0 -1.775 0l-2.45515 2.20851a1.3197 1.3197 0 0 1 -2.172-.68953l-.65678-3.19472a1.3069 1.3069 0 0 0 -1.43564-1.01935l-3.31626.37615a1.286 1.286 0 0 1 -1.34242-1.80406l1.38928-2.965a1.26526 1.26526 0 0 0 -.54806-1.64775l-2.90852-1.60125a1.26557 1.26557 0 0 1 0-2.23007l2.9086-1.6013a1.26526 1.26526 0 0 0 .54808-1.64769l-1.38928-2.96525a1.286 1.286 0 0 1 1.34247-1.804l3.31626.37623a1.30691 1.30691 0 0 0 1.43568-1.01937l.71844-3.19447a1.26911 1.26911 0 0 1 2.11026-.68954l2.45506 2.20846a1.33306 1.33306 0 0 0 1.775 0l2.45515-2.20851a1.3197 1.3197 0 0 1 2.172.68953l.65678 3.19472a1.30689 1.30689 0 0 0 1.43564 1.01935l3.31626-.37615a1.286 1.286 0 0 1 1.34242 1.80406l-1.38928 2.965a1.26526 1.26526 0 0 0 .54806 1.64775l2.90852 1.60125a1.26557 1.26557 0 0 1 .00001 2.23z" fill="#f73445"/><circle cx="43" cy="16" fill="#ffd700" r="7"/><path d="m7 42h12v20h-12z" fill="#92b1f9"/><path d="m7 61h12v1h-12z" fill="#6193f7"/><path d="m43.29639 15.04346c-1.12696-.35108-1.29639-.4878-1.29639-1.04346a1 1 0 0 1 2 0h2a2.99507 2.99507 0 0 0 -2-2.81573v-1.18427h-2v1.18427a2.99507 2.99507 0 0 0 -2 2.81573c0 2.11084 1.69092 2.6377 2.70117 2.95264 1.12891.35205 1.29883.48925 1.29883 1.04736a1 1 0 0 1 -2 0h-2a2.995 2.995 0 0 0 2 2.81567v1.18433h2v-1.18427a2.99507 2.99507 0 0 0 2-2.81573c0-2.11377-1.69238-2.64111-2.70361-2.95654z" fill="#7c7c7c"/></svg>
